<mxfile host="app.diagrams.net" modified="2024-01-15T11:00:35.440Z" agent="Mozilla/5.0 (Macintosh; Intel Mac OS X 10_15_7) AppleWebKit/537.36 (KHTML, like Gecko) Chrome/120.0.0.0 Safari/537.36" version="22.1.18" etag="ywiAimDpMKJnAueVCs7p" type="github">
  <diagram name="Page-1" id="FhyoHYfYRy_4g3WKSNTY">
    <mxGraphModel>
      <root>
        <mxCell id="0" />
        <mxCell id="1" parent="0" />
      </root>
    </mxGraphModel>
  </diagram>
</mxfile>
